<svg width="117" height="41" viewBox="0 0 117 41" fill="none" xmlns="http://www.w3.org/2000/svg">
<path d="M7.34889 11.0231L29.395 11.0231L29.395 29.3949H11.0232L11.0232 18.3718L25.7207 18.3718V14.6975L7.34889 14.6975L7.34888 33.0693L33.0694 33.0693L33.0694 7.34877L7.34889 7.34877V11.0231Z" fill="url(#paint0_radial_140_19263)"/>
<path d="M25.7207 22.0461L14.6976 22.0462V25.7206L25.7207 25.7206V22.0461Z" fill="url(#paint1_radial_140_19263)"/>
<path fill-rule="evenodd" clip-rule="evenodd" d="M0 40.4179L7.03759e-06 0L40.4179 7.03759e-06L40.4179 40.4179L0 40.4179ZM3.67436 3.67436L36.7436 3.67436L36.7436 36.7436L3.67436 36.7436L3.67436 3.67436Z" fill="url(#paint2_radial_140_19263)"/>
<path d="M51.5738 27.7512C50.9246 27.7512 50.346 27.6385 49.8382 27.4133C49.3303 27.1837 48.9284 26.8458 48.6325 26.3998C48.3411 25.9493 48.1953 25.3884 48.1953 24.7172C48.1953 24.1519 48.2991 23.6771 48.5067 23.2929C48.7142 22.9087 48.9969 22.5995 49.3546 22.3655C49.7123 22.1314 50.1186 21.9548 50.5735 21.8355C51.0328 21.7163 51.5142 21.6324 52.0176 21.5838C52.6094 21.522 53.0864 21.4646 53.4485 21.4116C53.8106 21.3542 54.0734 21.2702 54.2368 21.1598C54.4002 21.0494 54.4819 20.886 54.4819 20.6696V20.6299C54.4819 20.2103 54.3494 19.8857 54.0844 19.6561C53.8239 19.4264 53.4529 19.3116 52.9715 19.3116C52.4637 19.3116 52.0596 19.4242 51.7593 19.6495C51.459 19.8703 51.2602 20.1485 51.1631 20.4841L48.553 20.2722C48.6855 19.6539 48.9461 19.1195 49.3347 18.669C49.7234 18.2142 50.2246 17.8653 50.8385 17.6224C51.4567 17.3751 52.1722 17.2514 52.9848 17.2514C53.5501 17.2514 54.0911 17.3177 54.6078 17.4501C55.1289 17.5826 55.5904 17.788 55.9923 18.0662C56.3986 18.3444 56.7188 18.7022 56.9528 19.1394C57.1869 19.5722 57.3039 20.0911 57.3039 20.6961V27.559H54.6276V26.148H54.5482C54.3848 26.466 54.1661 26.7465 53.8923 26.9893C53.6185 27.2278 53.2895 27.4155 52.9053 27.5524C52.5211 27.6849 52.0772 27.7512 51.5738 27.7512ZM52.382 25.8036C52.7971 25.8036 53.1636 25.7219 53.4816 25.5585C53.7996 25.3906 54.0491 25.1654 54.2302 24.8828C54.4112 24.6001 54.5018 24.2799 54.5018 23.9222V22.8424C54.4135 22.8999 54.292 22.9529 54.1374 23.0014C53.9873 23.0456 53.8173 23.0875 53.6274 23.1273C53.4375 23.1626 53.2476 23.1957 53.0577 23.2267C52.8678 23.2532 52.6955 23.2774 52.5409 23.2995C52.2097 23.3481 51.9205 23.4254 51.6731 23.5314C51.4258 23.6374 51.2337 23.7809 51.0968 23.962C50.9599 24.1386 50.8915 24.3594 50.8915 24.6244C50.8915 25.0086 51.0306 25.3023 51.3088 25.5055C51.5914 25.7042 51.9492 25.8036 52.382 25.8036Z" fill="white"/>
<path d="M59.4933 27.559V17.3839H62.2292V19.1593H62.3352C62.5207 18.5277 62.832 18.0508 63.2692 17.7284C63.7064 17.4016 64.2099 17.2382 64.7796 17.2382C64.9209 17.2382 65.0733 17.247 65.2367 17.2647C65.4001 17.2823 65.5436 17.3066 65.6673 17.3375V19.8416C65.5348 19.8018 65.3515 19.7665 65.1175 19.7356C64.8834 19.7047 64.6692 19.6892 64.4749 19.6892C64.0598 19.6892 63.6888 19.7797 63.362 19.9608C63.0396 20.1375 62.7834 20.3848 62.5935 20.7027C62.4081 21.0207 62.3153 21.3873 62.3153 21.8024V27.559H59.4933Z" fill="white"/>
<path d="M67.1263 27.559V17.3839H69.8622V19.1593H69.9682C70.1537 18.5277 70.465 18.0508 70.9022 17.7284C71.3395 17.4016 71.8429 17.2382 72.4126 17.2382C72.5539 17.2382 72.7063 17.247 72.8697 17.2647C73.0331 17.2823 73.1766 17.3066 73.3003 17.3375V19.8416C73.1678 19.8018 72.9845 19.7665 72.7505 19.7356C72.5164 19.7047 72.3022 19.6892 72.1079 19.6892C71.6928 19.6892 71.3218 19.7797 70.995 19.9608C70.6726 20.1375 70.4165 20.3848 70.2266 20.7027C70.0411 21.0207 69.9483 21.3873 69.9483 21.8024V27.559H67.1263Z" fill="white"/>
<path d="M78.9228 27.7578C77.8761 27.7578 76.9752 27.5458 76.22 27.1218C75.4693 26.6935 74.8907 26.0884 74.4844 25.3067C74.0781 24.5206 73.875 23.591 73.875 22.5178C73.875 21.4712 74.0781 20.5526 74.4844 19.7621C74.8907 18.9716 75.4626 18.3555 76.2001 17.9139C76.9421 17.4722 77.8121 17.2514 78.8102 17.2514C79.4815 17.2514 80.1064 17.3596 80.6849 17.576C81.2678 17.788 81.7757 18.1082 82.2085 18.5366C82.6457 18.9649 82.9858 19.5037 83.2287 20.1529C83.4716 20.7977 83.593 21.5529 83.593 22.4185V23.1935H75.0011V21.4447H80.9366C80.9366 21.0384 80.8483 20.6785 80.6716 20.3649C80.495 20.0513 80.2499 19.8062 79.9363 19.6296C79.6272 19.4485 79.2673 19.358 78.8566 19.358C78.4282 19.358 78.0484 19.4574 77.7171 19.6561C77.3903 19.8504 77.1342 20.1132 76.9487 20.4444C76.7632 20.7712 76.6683 21.1355 76.6639 21.5374V23.2002C76.6639 23.7036 76.7566 24.1386 76.9421 24.5052C77.132 24.8717 77.3992 25.1544 77.7436 25.3531C78.0881 25.5518 78.4966 25.6512 78.9692 25.6512C79.2827 25.6512 79.5698 25.607 79.8303 25.5187C80.0909 25.4304 80.3139 25.2979 80.4994 25.1213C80.6849 24.9446 80.8262 24.7282 80.9234 24.4721L83.5334 24.6443C83.4009 25.2714 83.1293 25.819 82.7186 26.2872C82.3123 26.7509 81.7868 27.113 81.142 27.3736C80.5016 27.6297 79.7619 27.7578 78.9228 27.7578Z" fill="white"/>
<path d="M90.0187 31.5867C89.1046 31.5867 88.3207 31.4608 87.6671 31.2091C87.0179 30.9618 86.5012 30.624 86.1169 30.1956C85.7327 29.7672 85.4832 29.2858 85.3684 28.7514L87.9784 28.4004C88.0579 28.6035 88.1838 28.7934 88.356 28.9701C88.5282 29.1467 88.7557 29.288 89.0383 29.394C89.3254 29.5044 89.6743 29.5596 90.085 29.5596C90.6988 29.5596 91.2045 29.4095 91.602 29.1092C92.0039 28.8133 92.2048 28.3164 92.2048 27.6187V25.7572H92.0856C91.9619 26.0398 91.7764 26.307 91.5291 26.5588C91.2818 26.8105 90.9638 27.0158 90.5752 27.1748C90.1866 27.3338 89.7228 27.4133 89.1841 27.4133C88.42 27.4133 87.7245 27.2367 87.0974 26.8834C86.4747 26.5256 85.9778 25.9802 85.6069 25.2471C85.2403 24.5096 85.057 23.5778 85.057 22.4516C85.057 21.2989 85.2447 20.3362 85.6201 19.5633C85.9955 18.7905 86.4945 18.212 87.1172 17.8277C87.7443 17.4435 88.4311 17.2514 89.1774 17.2514C89.7471 17.2514 90.2241 17.3486 90.6083 17.5429C90.9925 17.7328 91.3017 17.9713 91.5357 18.2583C91.7742 18.541 91.9575 18.8192 92.0856 19.093H92.1916V17.3839H94.9937V27.6584C94.9937 28.524 94.7817 29.2483 94.3577 29.8312C93.9338 30.4142 93.3464 30.8514 92.5956 31.1429C91.8493 31.4388 90.9903 31.5867 90.0187 31.5867ZM90.0784 25.2935C90.5332 25.2935 90.9175 25.1809 91.231 24.9556C91.549 24.726 91.7919 24.3992 91.9597 23.9752C92.1319 23.5468 92.2181 23.0346 92.2181 22.4384C92.2181 21.8422 92.1341 21.3254 91.9663 20.8882C91.7985 20.4466 91.5556 20.1043 91.2376 19.8614C90.9197 19.6185 90.5332 19.4971 90.0784 19.4971C89.6146 19.4971 89.2238 19.623 88.9058 19.8747C88.5879 20.122 88.3472 20.4665 88.1838 20.9081C88.0204 21.3497 87.9387 21.8598 87.9387 22.4384C87.9387 23.0257 88.0204 23.5336 88.1838 23.962C88.3516 24.3859 88.5923 24.715 88.9058 24.949C89.2238 25.1787 89.6146 25.2935 90.0784 25.2935Z" fill="white"/>
<path d="M100.061 13.9922V27.559H97.2394V13.9922H100.061Z" fill="white"/>
<path d="M106.919 27.7578C105.89 27.7578 105 27.5392 104.25 27.102C103.503 26.6603 102.927 26.0465 102.521 25.2604C102.114 24.4698 101.911 23.5535 101.911 22.5112C101.911 21.4601 102.114 20.5416 102.521 19.7555C102.927 18.9649 103.503 18.3511 104.25 17.9139C105 17.4722 105.89 17.2514 106.919 17.2514C107.948 17.2514 108.836 17.4722 109.582 17.9139C110.333 18.3511 110.912 18.9649 111.318 19.7555C111.724 20.5416 111.927 21.4601 111.927 22.5112C111.927 23.5535 111.724 24.4698 111.318 25.2604C110.912 26.0465 110.333 26.6603 109.582 27.102C108.836 27.5392 107.948 27.7578 106.919 27.7578ZM106.933 25.5717C107.401 25.5717 107.792 25.4392 108.105 25.1742C108.419 24.9049 108.655 24.5383 108.814 24.0746C108.977 23.6109 109.059 23.0831 109.059 22.4913C109.059 21.8996 108.977 21.3718 108.814 20.9081C108.655 20.4444 108.419 20.0778 108.105 19.8084C107.792 19.5391 107.401 19.4044 106.933 19.4044C106.46 19.4044 106.063 19.5391 105.74 19.8084C105.422 20.0778 105.182 20.4444 105.018 20.9081C104.859 21.3718 104.78 21.8996 104.78 22.4913C104.78 23.0831 104.859 23.6109 105.018 24.0746C105.182 24.5383 105.422 24.9049 105.74 25.1742C106.063 25.4392 106.46 25.5717 106.933 25.5717Z" fill="white"/>
<path d="M115.412 27.7313C114.975 27.7313 114.599 27.5767 114.286 27.2676C113.977 26.954 113.822 26.5786 113.822 26.1414C113.822 25.7086 113.977 25.3377 114.286 25.0285C114.599 24.7194 114.975 24.5648 115.412 24.5648C115.836 24.5648 116.207 24.7194 116.525 25.0285C116.843 25.3377 117.002 25.7086 117.002 26.1414C117.002 26.4329 116.927 26.7001 116.777 26.943C116.631 27.1815 116.439 27.3736 116.2 27.5193C115.962 27.6606 115.699 27.7313 115.412 27.7313Z" fill="white"/>
<rect x="48" y="9" width="47" height="3" fill="white"/>
<defs>
<radialGradient id="paint0_radial_140_19263" cx="0" cy="0" r="1" gradientUnits="userSpaceOnUse" gradientTransform="translate(40.4179 1.99182e-06) rotate(135) scale(57.1596 216.091)">
<stop stop-color="#E7D494"/>
</radialGradient>
<radialGradient id="paint1_radial_140_19263" cx="0" cy="0" r="1" gradientUnits="userSpaceOnUse" gradientTransform="translate(40.4179 1.99182e-06) rotate(135) scale(57.1596 216.091)">
<stop stop-color="#E7D494"/>
</radialGradient>
<radialGradient id="paint2_radial_140_19263" cx="0" cy="0" r="1" gradientUnits="userSpaceOnUse" gradientTransform="translate(40.4179 1.99182e-06) rotate(135) scale(57.1596 216.091)">
<stop stop-color="#E7D494"/>
</radialGradient>
</defs>
</svg>
